<svg xmlns="http://www.w3.org/2000/svg" width="25" height="25" fill="none">
  <path fill="#566ad9" d="M15 18.5c-.7 0-1.292-.242-1.775-.725-.483-.483-.725-1.075-.725-1.775s.242-1.292.725-1.775c.483-.483 1.075-.725 1.775-.725s1.292.242 1.775.725c.483.483.725 1.075.725 1.775s-.242 1.292-.725 1.775c-.483.483-1.075.725-1.775.725Zm-9.5 4c-.55 0-1.02-.196-1.412-.587A1.93 1.93 0 0 1 3.5 20.5v-14c0-.55.196-1.02.588-1.412A1.93 1.93 0 0 1 5.5 4.5h1v-1c0-.283.096-.52.288-.712A.972.972 0 0 1 7.5 2.5c.283 0 .52.095.713.288A.96.96 0 0 1 8.5 3.5v1h8v-1c0-.283.096-.52.288-.712A.972.972 0 0 1 17.5 2.5c.283 0 .52.095.713.288a.96.96 0 0 1 .287.712v1h1c.55 0 1.021.196 1.413.588.392.392.588.863.587 1.412v14c0 .55-.196 1.021-.587 1.413a1.92 1.92 0 0 1-1.413.587h-14Zm0-2h14v-10h-14v10Z"/>
</svg>
